<svg id="visual" viewBox="0 0 900 600" width="900" height="600" xmlns="http://www.w3.org/2000/svg" xmlns:xlink="http://www.w3.org/1999/xlink" version="1.1"><rect x="0" y="0" width="900" height="600" fill="#e4e2e2"></rect><defs><linearGradient id="grad1_0" x1="33.3%" y1="0%" x2="100%" y2="100%"><stop offset="20%" stop-color="#e4e2e2" stop-opacity="1"></stop><stop offset="80%" stop-color="#e4e2e2" stop-opacity="1"></stop></linearGradient></defs><defs><linearGradient id="grad2_0" x1="0%" y1="0%" x2="66.7%" y2="100%"><stop offset="20%" stop-color="#e4e2e2" stop-opacity="1"></stop><stop offset="80%" stop-color="#e4e2e2" stop-opacity="1"></stop></linearGradient></defs><g transform="translate(900, 0)"><path d="M0 486.7C-59.3 458.5 -118.6 430.2 -164.6 397.3C-210.5 364.3 -243.2 326.6 -294.2 294.2C-345.2 261.7 -414.5 234.4 -449.7 186.3C-484.9 138.1 -485.8 69.1 -486.7 0L0 0Z" fill="#242424"></path></g><g transform="translate(0, 600)"><path d="M0 -486.7C43.9 -436.1 87.9 -385.4 153.5 -370.5C219 -355.6 306.3 -376.5 344.2 -344.2C382.1 -311.8 370.6 -226.2 386.2 -160C401.7 -93.7 444.2 -46.9 486.7 0L0 0Z" fill="#242424"></path></g></svg>