<svg id="visual" viewBox="0 0 900 600" width="900" height="600" xmlns="http://www.w3.org/2000/svg" xmlns:xlink="http://www.w3.org/1999/xlink" version="1.1"><rect x="0" y="0" width="900" height="600" fill="#e4e2e2"></rect><defs><linearGradient id="grad1_0" x1="33.3%" y1="0%" x2="100%" y2="100%"><stop offset="20%" stop-color="#e4e2e2" stop-opacity="1"></stop><stop offset="80%" stop-color="#e4e2e2" stop-opacity="1"></stop></linearGradient></defs><defs><linearGradient id="grad2_0" x1="0%" y1="0%" x2="66.7%" y2="100%"><stop offset="20%" stop-color="#e4e2e2" stop-opacity="1"></stop><stop offset="80%" stop-color="#e4e2e2" stop-opacity="1"></stop></linearGradient></defs><g transform="translate(900, 0)"><path d="M0 486.7C-69.2 485.4 -138.5 484.1 -186.3 449.7C-234.1 415.3 -260.4 347.9 -299.8 299.8C-339.2 251.7 -391.7 222.8 -425 176C-458.3 129.3 -472.5 64.6 -486.7 0L0 0Z" fill="#242424"></path></g><g transform="translate(0, 600)"><path d="M0 -486.7C58.9 -470.1 117.9 -453.5 179.5 -433.3C241.1 -413.1 305.4 -389.2 344.2 -344.2C383 -299.2 396.2 -233.1 415.7 -172.2C435.3 -111.3 461 -55.7 486.7 0L0 0Z" fill="#242424"></path></g></svg>